<?xml version="1.0" standalone="no"?>
<!DOCTYPE svg PUBLIC "-//W3C//DTD SVG 20010904//EN"
 "http://www.w3.org/TR/2001/REC-SVG-20010904/DTD/svg10.dtd">
<svg version="1.0" xmlns="http://www.w3.org/2000/svg"
 width="500.000000pt" height="500.000000pt" viewBox="0 0 500.000000 500.000000"
 preserveAspectRatio="xMidYMid meet">
<metadata>
Created by potrace 1.11, written by Peter Selinger 2001-2013
</metadata>
<g transform="translate(0.000000,500.000000) scale(0.100000,-0.100000)"
fill="#000000" stroke="none">
<path d="M2349 4989 c-693 -37 -1357 -383 -1800 -939 -677 -849 -725 -2039
-118 -2941 261 -389 646 -710 1074 -895 326 -141 638 -205 995 -205 354 0 665
63 990 203 815 349 1393 1132 1490 2017 14 132 14 417 0 541 -84 728 -469
1370 -1074 1788 -449 311 -990 460 -1557 431z"/>
</g>
</svg>
